<?xml version="1.0" encoding="UTF-8"?>
<!DOCTYPE svg PUBLIC "-//W3C//DTD SVG 1.1//EN" "http://www.w3.org/Graphics/SVG/1.1/DTD/svg11.dtd">
<!-- Creator: CorelDRAW X6 -->
<svg xmlns="http://www.w3.org/2000/svg" xml:space="preserve" width="6000px" height="6000px" version="1.1" style="shape-rendering:geometricPrecision; text-rendering:geometricPrecision; image-rendering:optimizeQuality; fill-rule:evenodd; clip-rule:evenodd"
viewBox="0 0 6000 6000"
 xmlns:xlink="http://www.w3.org/1999/xlink">
 <defs>
  <style type="text/css">
   <![CDATA[
    .fil1 {fill:#2165A5;fill-rule:nonzero}
    .fil0 {fill:#8A959A;fill-rule:nonzero}
   ]]>
  </style>
 </defs>
 <g id="Layer_x0020_1">
  <metadata id="CorelCorpID_0Corel-Layer"/>
  <path class="fil0" d="M3259 2203c-27,-21 -62,-32 -106,-32 -52,0 -94,17 -125,52 -16,18 -28,38 -35,60 -8,23 -12,49 -12,78 0,57 16,103 47,137 31,35 71,52 121,52 24,0 46,-5 65,-14 19,-9 36,-23 49,-41l10 46 40 0 0 -194 -154 0 0 50 99 0c0,15 -3,29 -8,41 -5,12 -13,23 -22,32 -18,18 -42,27 -72,27 -35,0 -62,-12 -82,-37 -20,-25 -30,-58 -30,-100 0,-44 10,-77 30,-101 20,-24 48,-36 84,-36 24,0 44,6 61,18 16,12 26,29 31,50l60 0c-6,-38 -22,-67 -49,-88zm108 338l238 0 0 -55 -178 0 0 -305 -60 0 0 360zm494 -281c20,24 30,58 30,101 0,43 -10,77 -30,101 -20,25 -47,37 -82,37 -35,0 -63,-12 -82,-37 -20,-24 -30,-58 -30,-101 0,-44 10,-77 30,-101 20,-25 47,-37 82,-37 35,0 63,12 82,37zm-209 -38c-31,34 -46,80 -46,139 0,59 16,105 47,139 31,34 73,51 126,51 54,0 96,-17 127,-51 31,-34 46,-80 46,-139 0,-59 -16,-105 -47,-139 -31,-34 -73,-51 -126,-51 -54,0 -96,17 -127,51zm493 154c25,0 44,5 55,14 12,9 18,23 18,42 0,19 -6,34 -18,43 -12,10 -29,14 -52,14l-94 0 0 -112 91 0zm-4 -145c21,0 37,4 47,12 11,8 16,19 16,34 0,18 -5,30 -16,39 -10,8 -27,12 -49,12l-85 0 0 -96 87 0zm-146 310l158 0c39,0 70,-10 92,-29 23,-19 34,-45 34,-78 0,-23 -6,-42 -16,-57 -11,-15 -27,-25 -47,-31 16,-7 28,-16 36,-29 9,-13 13,-29 13,-46 0,-31 -10,-53 -28,-68 -19,-16 -47,-23 -85,-23l-156 0 0 360zm504 -143l-107 0 54 -156 54 156zm-218 143l63 0 32 -93 140 0 32 93 64 0 -132 -360 -68 0 -131 360zm355 0l238 0 0 -55 -178 0 0 -305 -60 0 0 360z"/>
  <path class="fil0" d="M3220 2668c-24,-21 -55,-31 -94,-31 -40,0 -73,10 -97,29 -25,19 -37,43 -37,73 0,29 9,51 25,67 17,17 45,30 85,40l16 4c33,8 54,17 63,25 6,6 11,12 14,19 2,4 4,7 4,10 1,3 2,6 2,9 0,15 -7,27 -20,37 -14,10 -30,15 -51,15 -27,0 -49,-7 -65,-19 -9,-7 -15,-15 -20,-24 -5,-9 -7,-19 -7,-31l-58 0c0,20 4,38 11,54 7,15 17,28 30,39 25,22 60,32 104,32 43,0 76,-11 102,-31 26,-21 38,-48 38,-82 0,-28 -8,-50 -25,-66 -16,-16 -51,-30 -104,-44 -35,-9 -58,-18 -69,-27 -11,-9 -16,-20 -16,-34 0,-14 6,-25 19,-34 12,-9 28,-14 48,-14 24,0 43,6 57,18 8,6 13,13 17,21 4,8 6,17 6,27l57 0c0,-35 -12,-63 -36,-83zm87 338l60 0 0 -165 170 0 0 165 60 0 0 -360 -60 0 0 142 -170 0 0 -142 -60 0 0 360zm534 -143l-107 0 54 -156 54 156zm-218 143l63 0 32 -93 140 0 32 93 64 0 -132 -360 -68 0 -131 360zm496 -308c22,0 39,5 49,14 11,9 16,24 16,43 0,20 -5,35 -16,43 -11,9 -28,14 -52,14l-78 0 0 -114 81 0zm-141 308l60 0 0 -142 82 0c22,0 39,-2 51,-5 12,-3 23,-8 32,-15 14,-10 24,-22 31,-37 7,-15 11,-32 11,-52 0,-23 -4,-43 -13,-59 -9,-17 -21,-30 -38,-39 -8,-5 -18,-8 -29,-10 -6,-1 -13,-2 -21,-3 -8,0 -18,0 -29,0l-137 0 0 360zm300 0l265 0 0 -54 -206 0 0 -109 184 0 0 -51 -184 0 0 -94 199 0 0 -53 -258 0 0 360zm450 -309c25,0 43,5 53,13 11,9 16,23 16,42 0,20 -6,34 -17,43 -11,9 -29,14 -54,14l-86 0 0 -111 87 0zm-146 309l59 0 0 -148 80 0 12 0c20,0 34,4 43,12 4,4 8,10 11,18 3,8 4,17 4,28l2 43c0,7 1,13 1,18 1,5 1,9 2,14 2,7 4,12 6,17l67 0 0 -11c-5,-3 -9,-8 -11,-14 -2,-7 -4,-16 -4,-28l-3 -52c0,-11 -1,-21 -4,-29 -2,-9 -5,-15 -8,-21 -7,-11 -17,-18 -32,-23 17,-7 30,-17 39,-32 9,-15 13,-32 13,-52 0,-32 -9,-56 -27,-74 -18,-18 -43,-27 -75,-27l-4 0c-2,0 -5,0 -8,0 -4,0 -6,0 -8,0l-155 0 0 360zm565 -338c-24,-21 -55,-31 -94,-31 -40,0 -73,10 -97,29 -25,19 -37,43 -37,73 0,29 9,51 25,67 17,17 45,30 85,40l16 4c33,8 54,17 63,25 6,6 11,12 14,19 2,4 4,7 4,10 1,3 2,6 2,9 0,15 -7,27 -20,37 -14,10 -30,15 -51,15 -27,0 -49,-7 -65,-19 -9,-7 -15,-15 -20,-24 -5,-9 -7,-19 -7,-31l-58 0c0,20 4,38 11,54 7,15 17,28 30,39 25,22 60,32 104,32 43,0 76,-11 102,-31 26,-21 38,-48 38,-82 0,-28 -8,-50 -25,-66 -16,-16 -51,-30 -104,-44 -35,-9 -58,-18 -69,-27 -11,-9 -16,-20 -16,-34 0,-14 6,-25 19,-34 12,-9 28,-14 48,-14 24,0 43,6 57,18 8,6 13,13 17,21 4,8 6,17 6,27l57 0c0,-35 -12,-63 -36,-83z"/>
  <path class="fil0" d="M3257 3136c-27,-22 -62,-33 -105,-33 -54,0 -95,17 -125,50 -30,34 -45,80 -45,140 0,59 15,105 45,139 30,34 70,51 121,51 44,0 81,-13 110,-39 15,-14 26,-29 34,-45 8,-17 12,-35 12,-55l-59 0c-2,26 -12,46 -29,62 -17,16 -39,24 -65,24 -33,0 -59,-13 -79,-37 -19,-25 -29,-59 -29,-101 0,-22 3,-40 7,-57 5,-17 12,-31 21,-42 19,-24 46,-35 80,-35 26,0 47,6 63,18 16,13 26,29 29,51l59 0c-4,-38 -19,-68 -45,-90zm326 56c20,24 30,58 30,101 0,43 -10,77 -30,101 -20,25 -47,37 -82,37 -35,0 -63,-12 -82,-37 -20,-24 -30,-58 -30,-101 0,-44 10,-77 30,-101 20,-25 47,-37 82,-37 35,0 63,12 82,37zm-209 -38c-31,34 -46,80 -46,139 0,59 16,105 47,139 31,34 73,51 126,51 54,0 96,-17 127,-51 31,-34 46,-80 46,-139 0,-59 -16,-105 -47,-139 -31,-34 -73,-51 -126,-51 -54,0 -96,17 -127,51zm343 318l56 0 0 -297 88 297 59 0 89 -297 0 297 57 0 0 -360 -87 0 -88 288 -87 -288 -87 0 0 360zm407 0l56 0 0 -297 88 297 59 0 89 -297 0 297 57 0 0 -360 -87 0 -88 288 -87 -288 -87 0 0 360zm405 -133c0,47 12,83 36,107 24,24 60,36 106,36 46,0 81,-13 106,-37 25,-25 37,-60 37,-106l0 -227 -60 0 0 224c0,31 -7,54 -20,69 -14,15 -35,23 -63,23 -28,0 -49,-8 -62,-22 -14,-15 -20,-38 -20,-69l0 -224 -60 0 0 227zm342 133l58 0 0 -269 169 269 63 0 0 -360 -58 0 0 270 -168 -270 -64 0 0 360zm350 0l60 0 0 -360 -60 0 0 360zm87 -307l111 0 0 307 60 0 0 -307 111 0 0 -53 -282 0 0 53zm419 168l0 140 60 0 0 -142 124 -218 -69 0 -85 164 -88 -164 -74 0 133 220z"/>
  <path class="fil1" d="M3257 3602c-27,-22 -62,-33 -105,-33 -54,0 -95,17 -125,50 -30,34 -45,80 -45,140 0,59 15,105 45,139 30,34 70,51 121,51 44,0 81,-13 110,-39 15,-14 26,-29 34,-45 8,-17 12,-35 12,-55l-59 0c-2,26 -12,46 -29,62 -17,16 -39,24 -65,24 -33,0 -59,-13 -79,-37 -19,-25 -29,-59 -29,-101 0,-22 3,-40 7,-57 5,-17 12,-31 21,-42 19,-24 46,-35 80,-35 26,0 47,6 63,18 16,13 26,29 29,51l59 0c-4,-38 -19,-68 -45,-90zm94 337l238 0 0 -55 -178 0 0 -305 -60 0 0 360zm267 0l265 0 0 -54 -206 0 0 -109 184 0 0 -51 -184 0 0 -94 199 0 0 -53 -258 0 0 360zm400 0l60 0 125 -360 -64 0 -91 287 -91 -287 -65 0 125 360zm212 0l265 0 0 -54 -206 0 0 -109 184 0 0 -51 -184 0 0 -94 199 0 0 -53 -258 0 0 360zm313 0l238 0 0 -55 -178 0 0 -305 -60 0 0 360zm447 -143l-107 0 54 -156 54 156zm-218 143l63 0 32 -93 140 0 32 93 64 0 -132 -360 -68 0 -131 360zm357 0l58 0 0 -269 169 269 63 0 0 -360 -58 0 0 270 -168 -270 -64 0 0 360zm492 -309c33,0 58,11 75,32 17,21 26,52 26,93 0,45 -9,78 -26,99 -17,22 -43,32 -79,32l-74 0 0 -256 78 0zm-137 309l129 0c55,0 96,-16 125,-47 29,-32 44,-76 44,-135 0,-59 -13,-104 -40,-134 -27,-30 -67,-45 -119,-45l-139 0 0 360z"/>
  <path class="fil1" d="M4148 4293c-76,91 -161,176 -252,252l324 388c111,-93 215,-196 308,-306l8 -9c27,-33 54,-66 80,-100l-270 -203c-27,26 -54,52 -81,77l-116 -97z"/>
  <path class="fil1" d="M3334 4088c-44,29 -89,56 -137,79l35 69c-18,9 -36,18 -55,26l464 1032c177,-80 346,-180 501,-299l-689 -897c-25,19 -50,37 -76,54l-43 -64z"/>
  <path class="fil1" d="M1475 2290l-1002 -626c-84,134 -155,276 -212,424 373,134 745,273 1115,416 27,-74 60,-146 100,-215z"/>
  <path class="fil1" d="M3100 1242c122,35 241,82 354,141l133 -255c68,36 135,75 199,118l226 -337c-76,-51 -155,-98 -237,-141l-49 -25c-107,-53 -217,-98 -331,-136 -36,-12 -72,-23 -108,-33 -70,-20 -140,-36 -211,-50l-109 575c55,10 109,23 162,38l-29 103z"/>
  <path class="fil1" d="M949 1740c88,-89 184,-168 285,-238l83 91c56,-62 116,-122 181,-177l-335 -480c-88,61 -171,128 -251,200l-8 7c-51,47 -100,95 -147,146 -55,60 -107,122 -156,187 -26,34 -51,69 -75,104l233 159c29,-26 58,-52 88,-76l101 77z"/>
  <path class="fil1" d="M1845 1388c32,-15 64,-29 97,-42l-172 -426c39,-16 78,-30 117,-43l30 87 12 36 28 83c63,-21 127,-40 192,-55l-3 -89c78,-18 158,-31 237,-39l-43 -403c-180,19 -358,58 -530,116l-11 4c-44,15 -88,31 -131,49l-15 6c-141,58 -277,128 -406,211l376 587 20 32 47 74c58,-37 118,-71 180,-100l-25 -85z"/>
  <path class="fil1" d="M4085 1633c20,22 40,45 60,67l-44 53c41,49 79,100 115,153l56 -38c15,22 29,44 43,67l429 -267c-77,-124 -164,-241 -261,-349l-27 -29c-110,-119 -232,-228 -363,-323l-162 222c117,85 225,182 323,288l-169 156z"/>
  <path class="fil1" d="M763 2914c5,-101 18,-201 39,-300l-85 -18c16,-76 37,-150 62,-223l-554 -190c-82,237 -128,487 -135,738l0 121 584 -10c-1,-41 0,-81 2,-122l86 4z"/>
  <path class="fil1" d="M1558 4980c-32,-17 -64,-35 -96,-54l235 -395c-67,-40 -132,-84 -193,-132l-454 577c64,51 131,98 200,142 24,15 48,30 72,45 35,21 71,41 108,60 20,11 40,21 61,31 116,57 236,106 359,145l122 -386c-122,-39 -240,-88 -352,-148l-61 115z"/>
  <path class="fil1" d="M2415 4301l-39 290c-31,-5 -62,-10 -92,-16l-82 396c-42,-9 -83,-19 -125,-30l-133 487c106,29 213,51 322,66 22,3 45,6 67,8 63,7 126,12 189,14l16 0c1,-401 7,-801 18,-1202 -47,-2 -95,-6 -142,-13z"/>
  <path class="fil1" d="M3190 4948l-24 -79c-60,2 -119,1 -178,-3l-25 -120c-26,5 -52,10 -78,14l-17 -107c-55,9 -111,15 -167,18l6 108c-26,2 -53,2 -79,3l9 734 54 0c131,-4 262,-19 390,-44l28 -6c147,-30 290,-73 428,-128l-176 -441c-57,20 -115,37 -174,52z"/>
  <path class="fil1" d="M1350 3406l-106 26c5,-63 15,-124 28,-183 -142,19 -285,35 -428,49 -10,-57 -17,-114 -21,-172 -243,9 -486,14 -730,16 9,161 34,320 73,476 14,53 29,106 46,159 23,71 49,140 78,208 355,-183 717,-353 1083,-511 -9,-22 -17,-45 -24,-67z"/>
  <path class="fil1" d="M1050 4582c36,-31 39,-98 31,-167 -8,-69 -26,-142 -43,-187 22,-33 45,-65 68,-97l-1 -2c-37,12 -75,24 -113,35 -38,-33 -101,-74 -165,-103 -64,-29 -132,-46 -183,-20 -4,2 -7,4 -11,6 -16,-31 -31,-63 -45,-94l-257 121c150,319 370,608 639,837l97 -113 1 1 92 -111c-38,-34 -75,-69 -110,-106z"/>
  <path class="fil1" d="M2720 1167c53,-9 107,-15 162,-18l96 -640c-122,-18 -246,-27 -369,-28 -56,0 -112,2 -169,6l11 160 38 573 17 256c53,-19 107,-36 163,-49 15,-87 33,-173 52,-260z"/>
 </g>
</svg>
